<?xml version="1.0" encoding="UTF-8"?><svg xmlns="http://www.w3.org/2000/svg" viewBox="0 0 824.48 420.52"><defs><style>.cls-1{fill:#37647a;}.cls-2{fill:#dbdbdb;}.cls-3{fill:#89ce89;}.cls-4{fill:#1a323a;}</style></defs><g id="Layer_1"><path class="cls-1" d="M20,0H804c11.04,0,20,8.96,20,20V318H20c-11.04,0-20-8.96-20-20V20C0,8.96,8.96,0,20,0Z"/><path class="cls-4" d="M655.78,318h168.28s-132.41,94.76-132.41,94.76c-11.58,15.28-35.95,7.09-35.94-12.09l.06-82.67Z"/><g><path class="cls-2" d="M143.9,148.85l28.49-5.13c2.39,8.06,8.54,12.08,18.46,12.08,7.71,0,11.57-2.05,11.57-6.15,0-2.15-.89-3.82-2.67-5.02-1.78-1.2-4.97-2.26-9.56-3.18-17.53-3.36-28.79-7.75-33.77-13.17-4.98-5.42-7.47-11.8-7.47-19.12,0-9.43,3.58-17.26,10.73-23.52,7.15-6.25,17.44-9.38,30.87-9.38,20.36,0,33.81,8.18,40.36,24.54l-25.42,7.69c-2.64-6.69-7.98-10.03-16.04-10.03-6.69,0-10.03,2.08-10.03,6.23,0,1.86,.76,3.3,2.27,4.32,1.51,1.03,4.44,2,8.79,2.93,11.96,2.53,20.46,4.77,25.49,6.71,5.03,1.95,9.23,5.28,12.6,9.99,3.37,4.71,5.05,10.27,5.05,16.67,0,10.11-4.1,18.31-12.3,24.59s-18.97,9.42-32.3,9.42c-24.37,0-39.4-10.16-45.12-30.47Z"/><path class="cls-2" d="M324.31,153.9v23.88h-75.22V77.8h75.22v23.07h-45.12v14.5h36.47v22.19h-36.47v16.33h45.12Z"/><path class="cls-2" d="M395.34,177.78l-5.65-19.7h-26.78l-6,19.7h-24.91l30.86-99.98h32.45l31.36,99.98h-31.32Zm-27.22-41.53h16.18l-8.09-29-8.09,29Z"/><path class="cls-2" d="M474.99,101.75v76.03h-29.08V101.75h-20.73v-23.95h70.53v23.95h-20.73Z"/><path class="cls-2" d="M549.28,101.75v76.03h-29.08V101.75h-20.73v-23.95h70.53v23.95h-20.73Z"/><path class="cls-2" d="M652.56,153.24v24.54h-70.09V77.8h30.69v75.44h39.4Z"/><path class="cls-2" d="M742.23,153.9v23.88h-75.22V77.8h75.22v23.07h-45.12v14.5h36.48v22.19h-36.48v16.33h45.12Z"/><path class="cls-3" d="M149.85,240.18v-34.66h13.71c3.45,0,6.01,.85,7.68,2.54,1.67,1.69,2.5,3.65,2.5,5.89,0,3.92-2.05,6.53-6.14,7.81,2.44,.63,4.25,1.74,5.43,3.35,1.18,1.61,1.78,3.43,1.78,5.46,0,2.73-.92,5.01-2.75,6.85-1.84,1.84-4.67,2.76-8.49,2.76h-13.71Zm4.19-19.8h7.54c3.13,0,5.22-.6,6.27-1.79,1.05-1.19,1.57-2.59,1.57-4.2s-.56-2.88-1.69-3.86c-1.13-.98-2.81-1.47-5.04-1.47h-8.66v11.32Zm0,16h9.29c2.27,0,4.02-.55,5.26-1.65,1.24-1.1,1.85-2.53,1.85-4.29,0-1.24-.28-2.38-.84-3.44-.56-1.06-1.35-1.87-2.36-2.45-1.02-.58-2.53-.86-4.54-.86h-8.66v12.7Z"/><path class="cls-3" d="M214.04,205.52h3.61v22.64c0,4.54-1.11,7.8-3.34,9.77-2.23,1.97-5.14,2.96-8.75,2.96-4.01,0-6.98-1.02-8.91-3.05s-2.89-5.26-2.89-9.68v-22.64h4.34v22.64c0,2.69,.31,4.59,.94,5.69,.63,1.1,1.57,1.91,2.84,2.44s2.6,.79,3.99,.79c2.67,0,4.71-.7,6.09-2.11,1.39-1.41,2.08-3.68,2.08-6.81v-22.64Z"/><path class="cls-3" d="M234.98,231.01l3.91-.89c1.57,4.72,4.98,7.08,10.23,7.08,2.74,0,4.81-.58,6.2-1.75,1.39-1.16,2.08-2.72,2.08-4.68,0-1.48-.53-2.67-1.59-3.57-1.06-.9-2.28-1.52-3.67-1.86l-6.93-1.71c-1.79-.46-3.26-1.01-4.41-1.67-1.14-.65-2.11-1.66-2.91-3.01-.8-1.36-1.19-2.91-1.19-4.65,0-2.9,1.09-5.21,3.28-6.93s4.98-2.58,8.4-2.58c6.3,0,10.44,2.85,12.42,8.56l-3.94,1.17c-.46-2.03-1.53-3.57-3.22-4.61-1.69-1.04-3.5-1.56-5.41-1.56s-3.58,.5-5.07,1.51c-1.48,1-2.22,2.42-2.22,4.26,0,2.57,1.88,4.3,5.63,5.2l6.48,1.52c5.92,1.42,8.89,4.61,8.89,9.57,0,3-1.11,5.49-3.34,7.48-2.23,1.99-5.36,2.98-9.41,2.98-7.18,0-11.92-3.29-14.22-9.88Z"/><path class="cls-3" d="M285.74,240.18h-4.34v-34.66h4.34v34.66Z"/><path class="cls-3" d="M332.92,240.18h-4.21l-17.93-30.21,.05,2.29c.05,.86,.08,1.59,.08,2.18v25.75h-3.5v-34.66h5.43l16.76,28.24-.05-2.41c-.03-.95-.05-1.78-.05-2.51v-23.32h3.43v34.66Z"/><path class="cls-3" d="M376.99,236.37v3.81h-22.42v-34.66h21.94v3.81h-17.6v11.02h13.96v3.53h-13.96v12.49h18.08Z"/><path class="cls-3" d="M392.25,231.01l3.91-.89c1.57,4.72,4.98,7.08,10.23,7.08,2.74,0,4.81-.58,6.2-1.75,1.39-1.16,2.08-2.72,2.08-4.68,0-1.48-.53-2.67-1.59-3.57-1.06-.9-2.28-1.52-3.67-1.86l-6.93-1.71c-1.79-.46-3.26-1.01-4.41-1.67-1.14-.65-2.11-1.66-2.91-3.01-.8-1.36-1.19-2.91-1.19-4.65,0-2.9,1.09-5.21,3.28-6.93s4.98-2.58,8.4-2.58c6.3,0,10.44,2.85,12.42,8.56l-3.94,1.17c-.46-2.03-1.53-3.57-3.22-4.61-1.69-1.04-3.5-1.56-5.41-1.56s-3.58,.5-5.07,1.51c-1.48,1-2.22,2.42-2.22,4.26,0,2.57,1.88,4.3,5.63,5.2l6.48,1.52c5.92,1.42,8.89,4.61,8.89,9.57,0,3-1.11,5.49-3.34,7.48-2.23,1.99-5.36,2.98-9.41,2.98-7.18,0-11.92-3.29-14.22-9.88Z"/><path class="cls-3" d="M434.86,231.01l3.91-.89c1.57,4.72,4.98,7.08,10.23,7.08,2.74,0,4.81-.58,6.2-1.75,1.39-1.16,2.08-2.72,2.08-4.68,0-1.48-.53-2.67-1.59-3.57-1.06-.9-2.28-1.52-3.67-1.86l-6.93-1.71c-1.79-.46-3.26-1.01-4.41-1.67-1.14-.65-2.11-1.66-2.91-3.01-.8-1.36-1.19-2.91-1.19-4.65,0-2.9,1.09-5.21,3.28-6.93s4.98-2.58,8.4-2.58c6.3,0,10.44,2.85,12.42,8.56l-3.94,1.17c-.46-2.03-1.53-3.57-3.22-4.61-1.69-1.04-3.5-1.56-5.41-1.56s-3.58,.5-5.07,1.51c-1.48,1-2.22,2.42-2.22,4.26,0,2.57,1.88,4.3,5.63,5.2l6.48,1.52c5.92,1.42,8.89,4.61,8.89,9.57,0,3-1.11,5.49-3.34,7.48-2.23,1.99-5.36,2.98-9.41,2.98-7.18,0-11.92-3.29-14.22-9.88Z"/><path class="cls-3" d="M532.21,240.18h-4.55l-6.39-15.01h-9.93v15.01h-4.06v-34.66h13.66c3.71,0,6.45,1.01,8.24,3.03,1.79,2.02,2.68,4.24,2.68,6.64,0,1.85-.5,3.61-1.5,5.31-1,1.69-2.65,2.9-4.95,3.63l6.8,16.05Zm-20.87-18.54h9.06c2.39,0,4.17-.63,5.34-1.89,1.18-1.26,1.76-2.81,1.76-4.63s-.62-3.25-1.87-4.27-2.81-1.52-4.71-1.52h-9.6v12.31Z"/><path class="cls-3" d="M574.56,236.37v3.81h-22.42v-34.66h21.94v3.81h-17.6v11.02h13.96v3.53h-13.96v12.49h18.08Z"/><path class="cls-3" d="M617.01,205.52l-11.68,34.66h-4.2l-11.68-34.66h4.55l9.66,28.59,9.57-28.59h3.78Z"/><path class="cls-3" d="M638.87,240.18h-4.34v-34.66h4.34v34.66Z"/><path class="cls-3" d="M682.95,236.37v3.81h-22.42v-34.66h21.94v3.81h-17.6v11.02h13.96v3.53h-13.96v12.49h18.08Z"/><path class="cls-3" d="M739.2,205.52l-8.34,34.66h-4.35l-7.56-26.89-7.02,26.89h-4.46l-8.8-34.66h4.51l6.94,28.08,7.35-28.08h3.53l7.93,28.08,6.46-28.08h3.81Z"/></g></g><g id="Isolation_Mode"><path class="cls-2" d="M114.56,100.19v-.86h.02s-3.26-1.75-7.6-2.75c-4.35-1.01-8.31-1.99-8.31-1.99,0,0-1.26-.88-.36-1.38,.9-.5,2-1.12,2-1.61v-.75h-1.4c-.27-.59-.86-1.53-2.14-2.43-1.39-.99-3.45-1.58-4.68-1.84v-10.58h-1.83v10.58c-1.24,.26-3.31,.85-4.69,1.84-1.29,.9-1.88,1.83-2.15,2.43h-1.38v.75c0,.49,1.1,1.12,2,1.61,.9,.51-.36,1.38-.36,1.38,0,0-3.98,.98-8.31,1.99-4.35,1-7.61,2.75-7.61,2.75v.86h-3.57v1.88h2.02l1.62,3.45h2.57c.95,.6,2.21,1.34,3.04,1.64,1.5,.54,4.65,.54,4.65,.54h.98c.96,4.96,5.35,29.06,3.89,47.59-.75,9.54-8.59,63.97-10.65,78.11h-10.34v6.6h53.09v-6.6h-9.84c-1.82-15.39-8.54-73.03-8.54-88.23s5.2-33.58,6.27-37.47h1.31s3.17,0,4.67-.54c.83-.3,2.09-1.04,3.04-1.64h3.32l1.64-3.45h1.25v-1.88h-3.59Zm-34.8,133.2c1.5-13.26,6.93-62.07,7.6-80.38,.71-18.64-3.13-40.32-4.08-45.32h4.07c.19,3.94,.84,15.66,1.49,25.02,.69,10.04,3.48,83.1,4.18,100.68h-13.25Zm13.78-104.19c-1.88,0-2.43-16.88-2.54-21.51h7.4c-.3,2.7-2.42,21.53-4.86,21.51Zm18.17-25.86h-40.4v-1.92h40.4v1.92Z"/></g></svg>