<?xml version="1.0" encoding="UTF-8"?><svg id="Layer_1" xmlns="http://www.w3.org/2000/svg" viewBox="0 0 756.48 181.52"><defs><style>.cls-1{fill:#37647a;}.cls-2{fill:#3a653a;}</style></defs><path class="cls-1" d="M.24,71.14l28.49-5.13c2.39,8.06,8.54,12.08,18.46,12.08,7.71,0,11.57-2.05,11.57-6.15,0-2.15-.89-3.82-2.67-5.02-1.78-1.2-4.97-2.26-9.56-3.18-17.53-3.36-28.79-7.75-33.77-13.17-4.98-5.42-7.47-11.8-7.47-19.12,0-9.43,3.58-17.26,10.73-23.52C23.18,1.69,33.47-1.44,46.9-1.44c20.36,0,33.81,8.18,40.36,24.54l-25.42,7.69c-2.64-6.69-7.98-10.03-16.04-10.03-6.69,0-10.03,2.08-10.03,6.23,0,1.86,.76,3.3,2.27,4.32,1.51,1.03,4.44,2,8.79,2.93,11.96,2.53,20.46,4.77,25.49,6.71,5.03,1.95,9.23,5.28,12.6,9.99,3.37,4.71,5.05,10.27,5.05,16.67,0,10.11-4.1,18.31-12.3,24.59s-18.97,9.42-32.3,9.42c-24.37,0-39.4-10.16-45.12-30.47Z"/><path class="cls-1" d="M206.9,76.2v23.88h-75.22V.1h75.22V23.17h-45.12v14.5h36.47v22.19h-36.47v16.33h45.12Z"/><path class="cls-1" d="M304.19,100.07l-5.65-19.7h-26.78l-6,19.7h-24.91L271.7,.1h32.45l31.36,99.98h-31.32Zm-27.22-41.53h16.18l-8.09-29-8.09,29Z"/><path class="cls-1" d="M410.09,24.05V100.07h-29.08V24.05h-20.73V.1h70.53V24.05h-20.73Z"/><path class="cls-1" d="M510.62,24.05V100.07h-29.08V24.05h-20.73V.1h70.53V24.05h-20.73Z"/><path class="cls-1" d="M640.16,75.54v24.54h-70.09V.1h30.69V75.54h39.4Z"/><path class="cls-1" d="M756.07,76.2v23.88h-75.22V.1h75.22V23.17h-45.12v14.5h36.47v22.19h-36.47v16.33h45.12Z"/><path class="cls-2" d="M7.37,179.27v-43.99H24.77c4.38,0,7.63,1.07,9.75,3.22,2.12,2.15,3.17,4.64,3.17,7.47,0,4.98-2.6,8.29-7.8,9.92,3.09,.8,5.39,2.21,6.9,4.26,1.5,2.04,2.26,4.35,2.26,6.93,0,3.46-1.17,6.36-3.5,8.69-2.33,2.33-5.92,3.5-10.78,3.5H7.37Zm5.32-25.14h9.57c3.97,0,6.63-.76,7.96-2.27,1.33-1.51,2-3.29,2-5.33s-.71-3.65-2.14-4.9c-1.43-1.25-3.56-1.87-6.4-1.87H12.68v14.37Zm0,20.3h11.79c2.88,0,5.1-.7,6.67-2.09,1.57-1.4,2.35-3.21,2.35-5.45,0-1.57-.35-3.02-1.06-4.37-.71-1.34-1.71-2.38-3-3.11-1.29-.73-3.21-1.1-5.77-1.1H12.68v16.11Z"/><path class="cls-2" d="M88.83,135.28h4.58v28.73c0,5.76-1.41,9.9-4.24,12.4-2.83,2.5-6.53,3.76-11.1,3.76-5.09,0-8.86-1.29-11.31-3.87s-3.67-6.68-3.67-12.29v-28.73h5.51v28.74c0,3.42,.4,5.83,1.19,7.23,.79,1.4,2,2.43,3.61,3.1s3.3,1,5.06,1c3.39,0,5.97-.89,7.73-2.68,1.76-1.78,2.64-4.67,2.64-8.64v-28.74Z"/><path class="cls-2" d="M115.42,167.64l4.96-1.13c2,5.99,6.33,8.99,12.99,8.99,3.48,0,6.1-.74,7.86-2.21,1.76-1.48,2.64-3.46,2.64-5.93,0-1.88-.67-3.38-2.01-4.53-1.34-1.14-2.89-1.93-4.65-2.36l-8.8-2.17c-2.28-.58-4.14-1.29-5.59-2.11-1.45-.83-2.68-2.1-3.69-3.82-1.01-1.72-1.51-3.69-1.51-5.91,0-3.68,1.39-6.61,4.16-8.79,2.77-2.18,6.33-3.28,10.67-3.28,7.99,0,13.25,3.62,15.76,10.86l-5,1.48c-.58-2.58-1.94-4.53-4.09-5.85-2.15-1.32-4.44-1.98-6.86-1.98s-4.55,.64-6.43,1.91c-1.88,1.27-2.82,3.08-2.82,5.41,0,3.26,2.38,5.46,7.15,6.6l8.23,1.93c7.52,1.81,11.28,5.86,11.28,12.15,0,3.8-1.41,6.97-4.24,9.49-2.83,2.52-6.81,3.79-11.94,3.79-9.11,0-15.13-4.18-18.05-12.54Z"/><path class="cls-2" d="M179.84,179.27h-5.51v-43.99h5.51v43.99Z"/><path class="cls-2" d="M239.72,179.27h-5.35l-22.75-38.35,.06,2.9c.06,1.1,.1,2.02,.1,2.77v32.68h-4.45v-43.99h6.9l21.27,35.85-.06-3.06c-.04-1.2-.06-2.27-.06-3.19v-29.6h4.35v43.99Z"/><path class="cls-2" d="M295.67,174.44v4.83h-28.46v-43.99h27.84v4.83h-22.33v13.99h17.72v4.48h-17.72v15.86h22.95Z"/><path class="cls-2" d="M315.03,167.64l4.96-1.13c2,5.99,6.33,8.99,12.99,8.99,3.48,0,6.1-.74,7.86-2.21,1.76-1.48,2.64-3.46,2.64-5.93,0-1.88-.67-3.38-2.01-4.53-1.34-1.14-2.89-1.93-4.65-2.36l-8.8-2.17c-2.28-.58-4.14-1.29-5.59-2.11-1.45-.83-2.68-2.1-3.69-3.82-1.01-1.72-1.51-3.69-1.51-5.91,0-3.68,1.39-6.61,4.16-8.79,2.77-2.18,6.33-3.28,10.67-3.28,7.99,0,13.25,3.62,15.76,10.86l-5,1.48c-.58-2.58-1.94-4.53-4.09-5.85-2.15-1.32-4.44-1.98-6.86-1.98s-4.55,.64-6.43,1.91c-1.88,1.27-2.82,3.08-2.82,5.41,0,3.26,2.38,5.46,7.15,6.6l8.23,1.93c7.52,1.81,11.28,5.86,11.28,12.15,0,3.8-1.41,6.97-4.24,9.49-2.83,2.52-6.81,3.79-11.94,3.79-9.11,0-15.13-4.18-18.05-12.54Z"/><path class="cls-2" d="M369.11,167.64l4.96-1.13c2,5.99,6.33,8.99,12.99,8.99,3.48,0,6.1-.74,7.86-2.21,1.76-1.48,2.64-3.46,2.64-5.93,0-1.88-.67-3.38-2.01-4.53-1.34-1.14-2.89-1.93-4.65-2.36l-8.8-2.17c-2.28-.58-4.14-1.29-5.59-2.11-1.45-.83-2.68-2.1-3.69-3.82-1.01-1.72-1.51-3.69-1.51-5.91,0-3.68,1.39-6.61,4.16-8.79,2.77-2.18,6.33-3.28,10.67-3.28,7.99,0,13.25,3.62,15.76,10.86l-5,1.48c-.58-2.58-1.94-4.53-4.09-5.85-2.15-1.32-4.44-1.98-6.86-1.98s-4.55,.64-6.43,1.91c-1.88,1.27-2.82,3.08-2.82,5.41,0,3.26,2.38,5.46,7.15,6.6l8.23,1.93c7.52,1.81,11.28,5.86,11.28,12.15,0,3.8-1.41,6.97-4.24,9.49-2.83,2.52-6.81,3.79-11.94,3.79-9.11,0-15.13-4.18-18.05-12.54Z"/><path class="cls-2" d="M492.67,179.27h-5.78l-8.11-19.05h-12.6v19.05h-5.16v-43.99h17.34c4.71,0,8.19,1.28,10.46,3.85,2.27,2.57,3.4,5.38,3.4,8.43,0,2.34-.63,4.59-1.9,6.74-1.27,2.15-3.36,3.69-6.28,4.61l8.64,20.37Zm-26.49-23.53h11.5c3.03,0,5.29-.8,6.78-2.4,1.49-1.6,2.24-3.56,2.24-5.88s-.79-4.12-2.37-5.41c-1.58-1.29-3.57-1.93-5.98-1.93h-12.18v15.63Z"/><path class="cls-2" d="M546.42,174.44v4.83h-28.46v-43.99h27.84v4.83h-22.33v13.99h17.72v4.48h-17.72v15.86h22.95Z"/><path class="cls-2" d="M600.3,135.28l-14.82,43.99h-5.33l-14.82-43.99h5.77l12.26,36.29,12.14-36.29h4.79Z"/><path class="cls-2" d="M628.05,179.27h-5.51v-43.99h5.51v43.99Z"/><path class="cls-2" d="M684,174.44v4.83h-28.46v-43.99h27.84v4.83h-22.33v13.99h17.72v4.48h-17.72v15.86h22.95Z"/><path class="cls-2" d="M755.38,135.28l-10.59,43.99h-5.52l-9.6-34.13-8.91,34.13h-5.67l-11.17-43.99h5.72l8.81,35.64,9.33-35.64h4.49l10.06,35.64,8.21-35.64h4.84Z"/></svg>